<svg id="visual" viewBox="0 0 960 540" width="960" height="540" xmlns="http://www.w3.org/2000/svg" xmlns:xlink="http://www.w3.org/1999/xlink" version="1.1"><rect x="0" y="0" width="960" height="540" fill="#ffffff"></rect><path d="M0 227L20 231.7C40 236.3 80 245.7 120 256.2C160 266.7 200 278.3 240 272.5C280 266.7 320 243.3 360 242.2C400 241 440 262 480 273.5C520 285 560 287 600 273.2C640 259.3 680 229.7 720 215.2C760 200.7 800 201.3 840 210C880 218.7 920 235.3 940 243.7L960 252L960 0L940 0C920 0 880 0 840 0C800 0 760 0 720 0C680 0 640 0 600 0C560 0 520 0 480 0C440 0 400 0 360 0C320 0 280 0 240 0C200 0 160 0 120 0C80 0 40 0 20 0L0 0Z" fill="#414141"></path><path d="M0 254L20 238.8C40 223.7 80 193.3 120 174.8C160 156.3 200 149.7 240 157.8C280 166 320 189 360 194.7C400 200.3 440 188.7 480 180.7C520 172.7 560 168.3 600 181.2C640 194 680 224 720 230.3C760 236.7 800 219.3 840 206.7C880 194 920 186 940 182L960 178L960 0L940 0C920 0 880 0 840 0C800 0 760 0 720 0C680 0 640 0 600 0C560 0 520 0 480 0C440 0 400 0 360 0C320 0 280 0 240 0C200 0 160 0 120 0C80 0 40 0 20 0L0 0Z" fill="#3a3a3a"></path><path d="M0 158L20 168.3C40 178.7 80 199.3 120 210.7C160 222 200 224 240 212C280 200 320 174 360 167C400 160 440 172 480 184.2C520 196.3 560 208.7 600 203.5C640 198.3 680 175.7 720 178.7C760 181.7 800 210.3 840 210.7C880 211 920 183 940 169L960 155L960 0L940 0C920 0 880 0 840 0C800 0 760 0 720 0C680 0 640 0 600 0C560 0 520 0 480 0C440 0 400 0 360 0C320 0 280 0 240 0C200 0 160 0 120 0C80 0 40 0 20 0L0 0Z" fill="#333333"></path><path d="M0 154L20 148.5C40 143 80 132 120 140C160 148 200 175 240 184.2C280 193.3 320 184.7 360 178.8C400 173 440 170 480 171.5C520 173 560 179 600 174C640 169 680 153 720 155.2C760 157.3 800 177.7 840 174.8C880 172 920 146 940 133L960 120L960 0L940 0C920 0 880 0 840 0C800 0 760 0 720 0C680 0 640 0 600 0C560 0 520 0 480 0C440 0 400 0 360 0C320 0 280 0 240 0C200 0 160 0 120 0C80 0 40 0 20 0L0 0Z" fill="#2d2d2d"></path><path d="M0 124L20 130.3C40 136.7 80 149.3 120 152.2C160 155 200 148 240 138.7C280 129.3 320 117.7 360 117.2C400 116.7 440 127.3 480 138.3C520 149.3 560 160.7 600 157.8C640 155 680 138 720 130C760 122 800 123 840 133.7C880 144.3 920 164.7 940 174.8L960 185L960 0L940 0C920 0 880 0 840 0C800 0 760 0 720 0C680 0 640 0 600 0C560 0 520 0 480 0C440 0 400 0 360 0C320 0 280 0 240 0C200 0 160 0 120 0C80 0 40 0 20 0L0 0Z" fill="#262626"></path><path d="M0 114L20 115.8C40 117.7 80 121.3 120 124.8C160 128.3 200 131.7 240 134.5C280 137.3 320 139.7 360 137.8C400 136 440 130 480 122C520 114 560 104 600 101.5C640 99 680 104 720 106.3C760 108.7 800 108.3 840 108C880 107.7 920 107.3 940 107.2L960 107L960 0L940 0C920 0 880 0 840 0C800 0 760 0 720 0C680 0 640 0 600 0C560 0 520 0 480 0C440 0 400 0 360 0C320 0 280 0 240 0C200 0 160 0 120 0C80 0 40 0 20 0L0 0Z" fill="#202020"></path><path d="M0 78L20 79C40 80 80 82 120 87.3C160 92.7 200 101.3 240 98.8C280 96.3 320 82.7 360 76.2C400 69.7 440 70.3 480 69.3C520 68.3 560 65.7 600 68.8C640 72 680 81 720 83.3C760 85.7 800 81.3 840 81.3C880 81.3 920 85.7 940 87.8L960 90L960 0L940 0C920 0 880 0 840 0C800 0 760 0 720 0C680 0 640 0 600 0C560 0 520 0 480 0C440 0 400 0 360 0C320 0 280 0 240 0C200 0 160 0 120 0C80 0 40 0 20 0L0 0Z" fill="#1a1a1a"></path><path d="M0 53L20 52.5C40 52 80 51 120 59.3C160 67.7 200 85.3 240 87.7C280 90 320 77 360 72.5C400 68 440 72 480 73.3C520 74.7 560 73.3 600 72.8C640 72.3 680 72.7 720 73.3C760 74 800 75 840 77.3C880 79.7 920 83.3 940 85.2L960 87L960 0L940 0C920 0 880 0 840 0C800 0 760 0 720 0C680 0 640 0 600 0C560 0 520 0 480 0C440 0 400 0 360 0C320 0 280 0 240 0C200 0 160 0 120 0C80 0 40 0 20 0L0 0Z" fill="#131313"></path><path d="M0 34L20 39.2C40 44.3 80 54.7 120 54.3C160 54 200 43 240 41.5C280 40 320 48 360 47.3C400 46.7 440 37.3 480 35.8C520 34.3 560 40.7 600 40.7C640 40.7 680 34.3 720 32.3C760 30.3 800 32.7 840 39.3C880 46 920 57 940 62.5L960 68L960 0L940 0C920 0 880 0 840 0C800 0 760 0 720 0C680 0 640 0 600 0C560 0 520 0 480 0C440 0 400 0 360 0C320 0 280 0 240 0C200 0 160 0 120 0C80 0 40 0 20 0L0 0Z" fill="#0b0b0b"></path><path d="M0 20L20 18.5C40 17 80 14 120 16.2C160 18.3 200 25.7 240 29.8C280 34 320 35 360 32.5C400 30 440 24 480 25C520 26 560 34 600 35.3C640 36.7 680 31.3 720 28.2C760 25 800 24 840 25.2C880 26.3 920 29.7 940 31.3L960 33L960 0L940 0C920 0 880 0 840 0C800 0 760 0 720 0C680 0 640 0 600 0C560 0 520 0 480 0C440 0 400 0 360 0C320 0 280 0 240 0C200 0 160 0 120 0C80 0 40 0 20 0L0 0Z" fill="#000000"></path></svg>