<svg id="visual" viewBox="0 0 960 540" width="960" height="540" xmlns="http://www.w3.org/2000/svg" xmlns:xlink="http://www.w3.org/1999/xlink" version="1.1"><rect x="0" y="0" width="960" height="540" fill="#ffffff"></rect><path d="M0 194L22.8 184.8C45.7 175.7 91.3 157.3 137 160.3C182.7 163.3 228.3 187.7 274 192.5C319.7 197.3 365.3 182.7 411.2 170.7C457 158.7 503 149.3 548.8 151.7C594.7 154 640.3 168 686 180C731.7 192 777.3 202 823 206C868.7 210 914.3 208 937.2 207L960 206L960 0L937.2 0C914.3 0 868.7 0 823 0C777.3 0 731.7 0 686 0C640.3 0 594.7 0 548.8 0C503 0 457 0 411.2 0C365.3 0 319.7 0 274 0C228.3 0 182.7 0 137 0C91.3 0 45.7 0 22.8 0L0 0Z" fill="#7f7f7f"></path><path d="M0 166L22.8 157.8C45.7 149.7 91.3 133.3 137 127.5C182.7 121.7 228.3 126.3 274 134.2C319.7 142 365.3 153 411.2 161.7C457 170.3 503 176.7 548.8 168.7C594.7 160.7 640.3 138.3 686 135C731.7 131.7 777.3 147.3 823 150.2C868.7 153 914.3 143 937.2 138L960 133L960 0L937.2 0C914.3 0 868.7 0 823 0C777.3 0 731.7 0 686 0C640.3 0 594.7 0 548.8 0C503 0 457 0 411.2 0C365.3 0 319.7 0 274 0C228.3 0 182.7 0 137 0C91.3 0 45.7 0 22.8 0L0 0Z" fill="#5e5e5e"></path><path d="M0 99L22.8 101.2C45.7 103.3 91.3 107.7 137 110.8C182.7 114 228.3 116 274 118.8C319.7 121.7 365.3 125.3 411.2 122C457 118.7 503 108.3 548.8 103.2C594.7 98 640.3 98 686 99C731.7 100 777.3 102 823 101C868.7 100 914.3 96 937.2 94L960 92L960 0L937.2 0C914.3 0 868.7 0 823 0C777.3 0 731.7 0 686 0C640.3 0 594.7 0 548.8 0C503 0 457 0 411.2 0C365.3 0 319.7 0 274 0C228.3 0 182.7 0 137 0C91.3 0 45.7 0 22.8 0L0 0Z" fill="#3f3f3f"></path><path d="M0 64L22.8 62.7C45.7 61.3 91.3 58.7 137 63.8C182.7 69 228.3 82 274 89C319.7 96 365.3 97 411.2 90.7C457 84.3 503 70.7 548.8 68C594.7 65.3 640.3 73.7 686 78.5C731.7 83.3 777.3 84.7 823 81.7C868.7 78.7 914.3 71.3 937.2 67.7L960 64L960 0L937.2 0C914.3 0 868.7 0 823 0C777.3 0 731.7 0 686 0C640.3 0 594.7 0 548.8 0C503 0 457 0 411.2 0C365.3 0 319.7 0 274 0C228.3 0 182.7 0 137 0C91.3 0 45.7 0 22.8 0L0 0Z" fill="#222222"></path><path d="M0 25L22.8 29.7C45.7 34.3 91.3 43.7 137 45.3C182.7 47 228.3 41 274 40.5C319.7 40 365.3 45 411.2 47.5C457 50 503 50 548.8 47.7C594.7 45.3 640.3 40.7 686 37C731.7 33.3 777.3 30.7 823 29.5C868.7 28.3 914.3 28.7 937.2 28.8L960 29L960 0L937.2 0C914.3 0 868.7 0 823 0C777.3 0 731.7 0 686 0C640.3 0 594.7 0 548.8 0C503 0 457 0 411.2 0C365.3 0 319.7 0 274 0C228.3 0 182.7 0 137 0C91.3 0 45.7 0 22.8 0L0 0Z" fill="#000000"></path></svg>