<svg id="visual" viewBox="0 0 960 540" width="960" height="540" xmlns="http://www.w3.org/2000/svg" xmlns:xlink="http://www.w3.org/1999/xlink" version="1.1"><rect x="0" y="0" width="960" height="540" fill="#ffffff"></rect><path d="M0 159L20 151.3C40 143.7 80 128.3 120 110.8C160 93.3 200 73.7 240 83.2C280 92.7 320 131.3 360 133.3C400 135.3 440 100.7 480 81.7C520 62.7 560 59.3 600 82.5C640 105.7 680 155.3 720 179.5C760 203.7 800 202.3 840 187.8C880 173.3 920 145.7 940 131.8L960 118L960 541L940 541C920 541 880 541 840 541C800 541 760 541 720 541C680 541 640 541 600 541C560 541 520 541 480 541C440 541 400 541 360 541C320 541 280 541 240 541C200 541 160 541 120 541C80 541 40 541 20 541L0 541Z" fill="#000000"></path><path d="M0 115L20 140.2C40 165.3 80 215.7 120 246.2C160 276.7 200 287.3 240 273.7C280 260 320 222 360 212.7C400 203.3 440 222.7 480 236C520 249.3 560 256.7 600 235.5C640 214.3 680 164.7 720 154.2C760 143.7 800 172.3 840 193.3C880 214.3 920 227.7 940 234.3L960 241L960 541L940 541C920 541 880 541 840 541C800 541 760 541 720 541C680 541 640 541 600 541C560 541 520 541 480 541C440 541 400 541 360 541C320 541 280 541 240 541C200 541 160 541 120 541C80 541 40 541 20 541L0 541Z" fill="#080808"></path><path d="M0 274L20 256.8C40 239.7 80 205.3 120 186.3C160 167.3 200 163.7 240 183.7C280 203.7 320 247.3 360 259C400 270.7 440 250.3 480 230C520 209.7 560 189.3 600 198.2C640 207 680 245 720 240.2C760 235.3 800 187.7 840 187C880 186.3 920 232.7 940 255.8L960 279L960 541L940 541C920 541 880 541 840 541C800 541 760 541 720 541C680 541 640 541 600 541C560 541 520 541 480 541C440 541 400 541 360 541C320 541 280 541 240 541C200 541 160 541 120 541C80 541 40 541 20 541L0 541Z" fill="#101010"></path><path d="M0 281L20 290C40 299 80 317 120 303.7C160 290.3 200 245.7 240 230.5C280 215.3 320 229.7 360 239.5C400 249.3 440 254.7 480 252.2C520 249.7 560 239.3 600 247.5C640 255.7 680 282.3 720 278.7C760 275 800 241 840 245.8C880 250.7 920 294.3 940 316.2L960 338L960 541L940 541C920 541 880 541 840 541C800 541 760 541 720 541C680 541 640 541 600 541C560 541 520 541 480 541C440 541 400 541 360 541C320 541 280 541 240 541C200 541 160 541 120 541C80 541 40 541 20 541L0 541Z" fill="#151515"></path><path d="M0 331L20 320.5C40 310 80 289 120 284.2C160 279.3 200 290.7 240 306C280 321.3 320 340.7 360 341.7C400 342.7 440 325.3 480 307C520 288.7 560 269.3 600 274C640 278.7 680 307.3 720 320.7C760 334 800 332 840 314.2C880 296.3 920 262.7 940 245.8L960 229L960 541L940 541C920 541 880 541 840 541C800 541 760 541 720 541C680 541 640 541 600 541C560 541 520 541 480 541C440 541 400 541 360 541C320 541 280 541 240 541C200 541 160 541 120 541C80 541 40 541 20 541L0 541Z" fill="#1a1a1a"></path><path d="M0 348L20 345C40 342 80 336 120 330C160 324 200 318 240 313.2C280 308.3 320 304.7 360 307.8C400 311 440 321 480 334.3C520 347.7 560 364.3 600 368.3C640 372.3 680 363.7 720 359.8C760 356 800 357 840 357.7C880 358.3 920 358.7 940 358.8L960 359L960 541L940 541C920 541 880 541 840 541C800 541 760 541 720 541C680 541 640 541 600 541C560 541 520 541 480 541C440 541 400 541 360 541C320 541 280 541 240 541C200 541 160 541 120 541C80 541 40 541 20 541L0 541Z" fill="#1e1e1e"></path><path d="M0 407L20 405.3C40 403.7 80 400.3 120 391.5C160 382.7 200 368.3 240 372.5C280 376.7 320 399.3 360 410.3C400 421.3 440 420.7 480 422.3C520 424 560 428 600 422.5C640 417 680 402 720 398.3C760 394.7 800 402.3 840 402.3C880 402.3 920 394.7 940 390.8L960 387L960 541L940 541C920 541 880 541 840 541C800 541 760 541 720 541C680 541 640 541 600 541C560 541 520 541 480 541C440 541 400 541 360 541C320 541 280 541 240 541C200 541 160 541 120 541C80 541 40 541 20 541L0 541Z" fill="#232323"></path><path d="M0 448L20 449.2C40 450.3 80 452.7 120 438.8C160 425 200 395 240 391C280 387 320 409 360 416.7C400 424.3 440 417.7 480 415.3C520 413 560 415 600 415.8C640 416.7 680 416.3 720 415.3C760 414.3 800 412.7 840 408.7C880 404.7 920 398.3 940 395.2L960 392L960 541L940 541C920 541 880 541 840 541C800 541 760 541 720 541C680 541 640 541 600 541C560 541 520 541 480 541C440 541 400 541 360 541C320 541 280 541 240 541C200 541 160 541 120 541C80 541 40 541 20 541L0 541Z" fill="#282828"></path><path d="M0 480L20 471.5C40 463 80 446 120 446.8C160 447.7 200 466.3 240 469C280 471.7 320 458.3 360 459.3C400 460.3 440 475.7 480 478C520 480.3 560 469.7 600 469.7C640 469.7 680 480.3 720 483.7C760 487 800 483 840 471.8C880 460.7 920 442.3 940 433.2L960 424L960 541L940 541C920 541 880 541 840 541C800 541 760 541 720 541C680 541 640 541 600 541C560 541 520 541 480 541C440 541 400 541 360 541C320 541 280 541 240 541C200 541 160 541 120 541C80 541 40 541 20 541L0 541Z" fill="#2d2d2d"></path><path d="M0 503L20 505.8C40 508.7 80 514.3 120 510.8C160 507.3 200 494.7 240 487.7C280 480.7 320 479.3 360 483.7C400 488 440 498 480 496.3C520 494.7 560 481.3 600 479C640 476.7 680 485.3 720 490.5C760 495.7 800 497.3 840 495.3C880 493.3 920 487.7 940 484.8L960 482L960 541L940 541C920 541 880 541 840 541C800 541 760 541 720 541C680 541 640 541 600 541C560 541 520 541 480 541C440 541 400 541 360 541C320 541 280 541 240 541C200 541 160 541 120 541C80 541 40 541 20 541L0 541Z" fill="#323232"></path></svg>